<svg xmlns="http://www.w3.org/2000/svg" viewBox="0 0 1200 630" width="1200" height="630">
  <defs>
    <pattern id="grid" width="48" height="48" patternUnits="userSpaceOnUse">
      <path d="M 48 0 L 0 0 0 48" fill="none" stroke="#e3fc02" stroke-width="0.3" opacity="0.04"/>
    </pattern>
  </defs>

  <rect width="1200" height="630" fill="#06060e"/>
  <rect width="1200" height="630" fill="url(#grid)"/>

  <circle cx="600" cy="260" r="280" fill="#00FCED" opacity="0.025"/>
  <circle cx="600" cy="280" r="180" fill="#e3fc02" opacity="0.02"/>

  <line x1="600" y1="80" x2="600" y2="440" stroke="#00FCED" stroke-width="0.5" opacity="0.2"/>
  <line x1="340" y1="260" x2="860" y2="260" stroke="#e3fc02" stroke-width="0.5" opacity="0.2"/>

  <circle cx="600" cy="260" r="140" fill="none" stroke="#00FCED" stroke-width="0.6" opacity="0.1"/>
  <circle cx="600" cy="260" r="100" fill="none" stroke="#00FCED" stroke-width="0.7" opacity="0.12"/>
  <circle cx="600" cy="260" r="60" fill="none" stroke="#e3fc02" stroke-width="0.8" opacity="0.15"/>
  <circle cx="600" cy="260" r="4" fill="#00FCED"/>

  <rect x="630" y="228" width="60" height="60" rx="8" fill="rgba(227,252,2,0.04)" stroke="#e3fc02" stroke-width="2"/>
  <text x="660" y="264" text-anchor="middle" font-family="monospace" font-size="12" fill="rgba(245,245,247,0.5)">&lt;div&gt;</text>

  <line x1="660" y1="258" x2="600" y2="258" stroke="#e3fc02" stroke-width="1" stroke-dasharray="4 4" opacity="0.5"/>

  <path d="M 330 100 L 330 80 L 350 80" fill="none" stroke="#00FCED" stroke-width="1.5" opacity="0.35"/>
  <path d="M 870 100 L 870 80 L 850 80" fill="none" stroke="#00FCED" stroke-width="1.5" opacity="0.35"/>
  <path d="M 330 420 L 330 440 L 350 440" fill="none" stroke="#e3fc02" stroke-width="1.5" opacity="0.3"/>
  <path d="M 870 420 L 870 440 L 850 440" fill="none" stroke="#e3fc02" stroke-width="1.5" opacity="0.3"/>

  <text x="600" y="56" text-anchor="middle" font-family="'Courier New', monospace" font-size="14" font-weight="700" fill="#e3fc02" letter-spacing="4">DIV//CENTER  v4.2.0</text>

  <text x="600" y="505" text-anchor="middle" font-family="Arial, Helvetica, sans-serif" font-size="46" font-weight="900" fill="#F5F5F7">Can You Center This Div?</text>

  <text x="600" y="545" text-anchor="middle" font-family="'Courier New', monospace" font-size="14" fill="#ff4060" letter-spacing="2" font-weight="700">THRESHOLD: 0.0001px  |  SUCCESSES: 0  |  EVER</text>

  <text x="600" y="605" text-anchor="middle" font-family="'Courier New', monospace" font-size="11" fill="rgba(245,245,247,0.2)" letter-spacing="3">RAXXO STUDIOS  /  DEV APRIL FOOLS 2026  /  #418</text>
</svg>
